<?xml version="1.0" encoding="UTF-8"?>
<svg xmlns="http://www.w3.org/2000/svg" viewBox="0 0 360 360">
  <defs>
    <style>
      .cls-1 {
        fill: #f9b3b8;
      }

      .cls-2 {
        fill: none;
        stroke: #392c24;
        stroke-miterlimit: 10;
        stroke-width: 2px;
      }
    </style>
  </defs>
  <g id="Layer_4" data-name="Layer 4">
    <path class="cls-1" d="M360,281.37V0H78.63v6.64c0,33.33-7.59,48.08-14.92,62.35-6.74,13.13-13.71,26.7-13.71,53.48s18.19,69.29,67.02,69.29c7.98,0,15.86-1.76,23.35-4.92.39.38.77.77,1.17,1.17l1.05,1.05c.71.71,1.43,1.44,2.17,2.18,8.98,9.02,20.09,20.12,28.41,28.38-3.17,7.48-4.92,15.38-4.92,23.36,0,26.58,12.84,42.45,23.62,51.09,12.46,9.97,29.53,15.93,45.66,15.93,26.78,0,40.35-6.97,53.48-13.71,14.27-7.34,29.03-14.92,62.35-14.92h6.64Z"/>
  </g>
  <g id="Layer_2" data-name="Layer 2">
    <g>
      <path class="cls-2" d="M78.63,0v6.64c0,33.33-7.59,48.08-14.92,62.35-6.74,13.13-13.71,26.7-13.71,53.48s18.19,69.29,67.02,69.29c7.98,0,15.86-1.76,23.35-4.92.39.38.77.77,1.17,1.17l1.05,1.05c.71.71,1.43,1.44,2.17,2.18,8.98,9.02,20.09,20.12,28.41,28.38-3.17,7.48-4.92,15.38-4.92,23.36,0,26.58,12.84,42.45,23.62,51.09,12.46,9.97,29.53,15.93,45.66,15.93,26.78,0,40.35-6.97,53.48-13.71,14.27-7.34,29.03-14.92,62.35-14.92h6.64M360,274.37h-6.64c-35.02,0-50.54,7.98-65.55,15.69-12.96,6.66-25.19,12.94-50.28,12.94s-62.28-16.29-62.28-60.02c0-4.29.6-8.62,1.75-12.94.38-1.4.81-2.79,1.3-4.18.1-.3.21-.61.32-.91h.01s.07.07.11.11l.04.04c7.51,6.77,33.65,27.64,70.68,27.64s55.55-19.33,55.55-38.49c0-11.53-4.28-22.15-12.04-29.91-9.84-9.83-24.61-14.82-43.89-14.82-30.11,0-59.04,18.75-72.68,43.45-7.76-7.71-17.5-17.45-25.68-25.66-1.27-1.27-2.51-2.51-3.69-3.71l1.31-.75c24.04-13.92,42.14-42.36,42.14-71.93,0-19.28-4.99-34.04-14.83-43.89-7.75-7.76-18.38-12.04-29.9-12.04-19.16,0-38.49,17.18-38.49,55.56,0,31.26,14.87,54.75,23.58,65.83,1.68,2.14,3.13,3.82,4.2,5-.02.01-.03.01-.05.02-.43.16-.87.31-1.3.46h-.01c-5.53,1.9-11.13,2.9-16.66,2.9-43.73,0-60.02-38.21-60.02-62.29s6.28-37.32,12.94-50.28c7.71-15.01,15.69-30.53,15.69-65.55V0M143.21,177.66c-.45.24-.91.48-1.36.72h-.01c-.05-.06-.1-.11-.15-.16-.62-.62-2.27-2.34-4.48-5.05-7.9-9.72-22.95-32.22-22.95-62.62,0-33.54,15.81-48.56,31.49-48.56,8.85,0,37.73,3.53,37.73,48.93,0,18.23-7.66,37-21,51.49-5.85,6.36-12.4,11.5-19.27,15.25ZM181.63,218.16c.24-.46.48-.92.73-1.38.03-.06.06-.12.09-.17.22-.4.45-.8.68-1.2.25-.45.52-.91.8-1.36,3.56-5.87,8.15-11.46,13.66-16.53,14.49-13.35,33.26-21,51.49-21,45.4,0,48.93,28.88,48.93,37.73,0,15.68-15.01,31.49-48.55,31.49-35.78,0-60.61-20.83-66.56-26.36-.17-.16-.32-.3-.45-.42l-.06-.06c-.26-.25-.47-.45-.61-.59l-.15-.15Z"/>
      <g>
        <path class="cls-2" d="M178.79,209.08c-3.22,5.07-5.75,10.35-7.52,15.73"/>
        <path class="cls-2" d="M177,230.04c1.5-5.59,3.93-11.13,7.21-16.44"/>
      </g>
      <g>
        <path class="cls-2" d="M130.84,176.38c1.68,2.14,3.13,3.82,4.2,5,.43.47.8.87,1.1,1.18l3.83,3.88c.14.13.27.26.4.4.39.38.77.77,1.17,1.17l1.05,1.05c.71.71,1.43,1.44,2.17,2.18"/>
        <path class="cls-2" d="M150.73,187.31c-3.33-3.34-6.42-6.45-9.04-9.09-.61-.62-2.26-2.34-4.47-5.05"/>
      </g>
      <polygon class="cls-2" points="143.21 177.65 141.84 178.38 147.03 183.6 148.34 182.85 143.21 177.65"/>
      <polygon class="cls-2" points="182.92 219.36 181.75 218.34 178.74 225.06 179.91 226.01 182.92 219.36"/>
      <polygon class="cls-2" points="176.19 212.96 175.07 211.85 172.13 218.4 173.29 219.52 176.19 212.96"/>
      <polygon class="cls-2" points="134.84 181.25 133.48 181.97 138.67 187.2 139.98 186.44 134.84 181.25"/>
    </g>
  </g>
</svg>