<?xml version="1.0" encoding="UTF-8"?>
<svg xmlns="http://www.w3.org/2000/svg" viewBox="0 0 360 360">
  <defs>
    <style>
      .cls-1 {
        fill: #f9b3b8;
      }

      .cls-2 {
        fill: none;
        stroke: #392c24;
        stroke-miterlimit: 10;
        stroke-width: 2px;
      }
    </style>
  </defs>
  <g id="Layer_4" data-name="Layer 4">
    <path class="cls-1" d="M0,281.37V0h281.37v6.64c0,33.33,7.59,48.08,14.92,62.35,6.74,13.13,13.71,26.7,13.71,53.48,0,26.79-18.19,69.29-67.02,69.29-7.98,0-15.86-1.76-23.35-4.92-.39.38-.77.77-1.17,1.17l-1.05,1.05c-.71.71-1.43,1.44-2.17,2.18-8.98,9.02-20.09,20.12-28.41,28.38,3.17,7.48,4.92,15.38,4.92,23.36,0,26.58-12.84,42.45-23.62,51.09-12.46,9.97-29.53,15.93-45.66,15.93-26.78,0-40.35-6.97-53.48-13.71-14.27-7.34-29.03-14.92-62.35-14.92H0Z"/>
  </g>
  <g id="Layer_2" data-name="Layer 2">
    <g>
      <path class="cls-2" d="M0,281.37h6.64c33.33,0,48.08,7.59,62.35,14.92,13.13,6.74,26.7,13.71,53.48,13.71,26.79,0,69.29-18.19,69.29-67.02,0-7.98-1.76-15.86-4.92-23.35.38-.39.77-.77,1.17-1.17l1.05-1.05c.71-.71,1.44-1.43,2.18-2.17,9.02-8.98,20.12-20.09,28.38-28.41,7.48,3.17,15.38,4.92,23.36,4.92,26.58,0,42.45-12.84,51.09-23.62,9.97-12.46,15.93-29.53,15.93-45.66,0-26.78-6.97-40.35-13.71-53.48-7.34-14.27-14.92-29.03-14.92-62.35V0M274.37,0v6.64c0,35.02,7.98,50.54,15.69,65.55,6.66,12.96,12.94,25.19,12.94,50.28,0,24.08-16.29,62.28-60.02,62.28-4.29,0-8.62-.6-12.94-1.75-1.4-.38-2.79-.81-4.18-1.3-.3-.1-.61-.21-.91-.32h.01s.06-.08.1-.12l.04-.04c6.77-7.51,27.64-33.65,27.64-70.68s-19.33-55.55-38.49-55.55c-11.53,0-22.15,4.28-29.91,12.04-9.83,9.84-14.82,24.61-14.82,43.89,0,30.11,18.75,59.04,43.45,72.68-7.71,7.76-17.45,17.5-25.66,25.68-1.27,1.27-2.51,2.51-3.71,3.69l-.75-1.31c-13.92-24.04-42.36-42.14-71.93-42.14-19.28,0-34.04,4.99-43.89,14.83-7.76,7.75-12.04,18.38-12.04,29.9,0,19.16,17.18,38.49,55.56,38.49,31.26,0,54.75-14.87,65.83-23.58,2.14-1.68,3.82-3.13,5-4.2.01.02.01.03.02.05.16.43.31.87.46,1.3h0c1.9,5.54,2.9,11.14,2.9,16.67,0,43.73-38.21,60.02-62.29,60.02-25.09,0-37.32-6.28-50.28-12.94-15.01-7.71-30.53-15.69-65.55-15.69H0M177.66,216.79c.24.45.48.91.72,1.36h0l-.16.16c-.62.62-2.34,2.27-5.05,4.48-9.72,7.9-32.22,22.95-62.62,22.95-33.54,0-48.56-15.81-48.56-31.49,0-8.85,3.53-37.73,48.93-37.73,18.23,0,37,7.66,51.49,21,6.36,5.85,11.5,12.4,15.25,19.27ZM218.16,178.37c-.46-.24-.92-.48-1.38-.73-.06-.03-.12-.06-.17-.09-.4-.22-.8-.45-1.2-.68-.45-.25-.91-.52-1.36-.8-5.87-3.56-11.46-8.15-16.53-13.66-13.35-14.49-21-33.26-21-51.49,0-45.4,28.88-48.93,37.73-48.93,15.68,0,31.49,15.01,31.49,48.55,0,35.78-20.83,60.61-26.36,66.56-.16.17-.3.32-.42.45l-.06.06c-.25.26-.45.47-.59.61l-.15.15Z"/>
      <g>
        <path class="cls-2" d="M209.08,181.21c5.07,3.22,10.35,5.75,15.73,7.52"/>
        <path class="cls-2" d="M230.04,183c-5.59-1.5-11.13-3.93-16.44-7.21"/>
      </g>
      <g>
        <path class="cls-2" d="M176.38,229.16c2.14-1.68,3.82-3.13,5-4.2.47-.43.87-.8,1.18-1.1l3.88-3.83c.13-.14.26-.27.4-.4.38-.39.77-.77,1.17-1.17l1.05-1.05c.71-.71,1.44-1.43,2.18-2.17"/>
        <path class="cls-2" d="M187.31,209.28c-3.34,3.33-6.45,6.42-9.09,9.04-.62.61-2.34,2.26-5.05,4.47"/>
      </g>
      <polygon class="cls-2" points="177.65 216.8 178.38 218.16 183.6 212.97 182.85 211.66 177.65 216.8"/>
      <polygon class="cls-2" points="219.36 177.09 218.34 178.25 225.06 181.26 226.01 180.09 219.36 177.09"/>
      <polygon class="cls-2" points="212.96 183.82 211.85 184.94 218.4 187.88 219.52 186.72 212.96 183.82"/>
      <polygon class="cls-2" points="181.25 225.16 181.97 226.52 187.2 221.33 186.44 220.03 181.25 225.16"/>
    </g>
  </g>
</svg>