<?xml version="1.0" encoding="UTF-8"?>
<svg xmlns="http://www.w3.org/2000/svg" viewBox="0 0 360 360">
  <defs>
    <style>
      .cls-1 {
        fill: #f9b3b8;
      }

      .cls-2 {
        fill: none;
        stroke: #392c24;
        stroke-miterlimit: 10;
        stroke-width: 2px;
      }
    </style>
  </defs>
  <g id="Layer_4" data-name="Layer 4">
    <path class="cls-1" d="M360,78.63v281.37H78.63v-6.64c0-33.33-7.59-48.08-14.92-62.35-6.74-13.13-13.71-26.7-13.71-53.48s18.19-69.29,67.02-69.29c7.98,0,15.86,1.76,23.35,4.92.39-.38.77-.77,1.17-1.17l1.05-1.05c.71-.71,1.43-1.44,2.17-2.18,8.98-9.02,20.09-20.12,28.41-28.38-3.17-7.48-4.92-15.38-4.92-23.36,0-26.58,12.84-42.45,23.62-51.09,12.46-9.97,29.53-15.93,45.66-15.93,26.78,0,40.35,6.97,53.48,13.71,14.27,7.34,29.03,14.92,62.35,14.92h6.64Z"/>
  </g>
  <g id="Layer_2" data-name="Layer 2">
    <g>
      <path class="cls-2" d="M360,78.63h-6.64c-33.32,0-48.08-7.58-62.35-14.92-13.13-6.74-26.7-13.71-53.48-13.71-16.13,0-33.2,5.96-45.66,15.93-10.78,8.64-23.62,24.51-23.62,51.09,0,7.98,1.75,15.88,4.92,23.36-8.32,8.26-19.43,19.36-28.41,28.38-.74.74-1.46,1.47-2.17,2.18l-1.05,1.05c-.4.4-.78.79-1.17,1.17-7.49-3.16-15.37-4.92-23.35-4.92-48.83,0-67.02,42.5-67.02,69.29s6.97,40.35,13.71,53.48c7.33,14.27,14.92,29.02,14.92,62.35v6.64M85.63,360v-6.64c0-35.02-7.98-50.54-15.69-65.55-6.66-12.96-12.94-25.19-12.94-50.28s16.29-62.29,60.02-62.29c5.53,0,11.13,1,16.66,2.9h.01c.43.15.87.3,1.3.46.02.01.03.01.05.02-1.07,1.18-2.52,2.86-4.2,5-8.71,11.08-23.58,34.57-23.58,65.83,0,38.38,19.33,55.56,38.49,55.56,11.52,0,22.15-4.28,29.9-12.04,9.84-9.85,14.83-24.61,14.83-43.89,0-29.57-18.1-58.01-42.14-71.93l-1.31-.75c1.18-1.2,2.42-2.44,3.69-3.71,8.18-8.21,17.92-17.95,25.68-25.66,13.64,24.7,42.57,43.45,72.68,43.45,19.28,0,34.05-4.99,43.89-14.82,7.76-7.76,12.04-18.38,12.04-29.91,0-19.16-17.18-38.49-55.55-38.49s-63.17,20.87-70.68,27.64l-.04.04s-.08.07-.11.1h-.01c-.11-.29-.22-.6-.32-.9-.49-1.39-.92-2.78-1.3-4.18-1.15-4.32-1.75-8.65-1.75-12.94,0-43.73,38.2-60.02,62.28-60.02s37.32,6.28,50.28,12.94c15.01,7.71,30.53,15.69,65.55,15.69h6.64M162.48,197.59c13.34,14.49,21,33.26,21,51.49,0,45.4-28.88,48.93-37.73,48.93-15.68,0-31.49-15.02-31.49-48.56,0-30.4,15.05-52.9,22.95-62.62,2.21-2.71,3.86-4.43,4.48-5.05.05-.05.1-.1.15-.16h.01c.45.24.91.48,1.36.72,6.87,3.75,13.42,8.89,19.27,15.25ZM181.78,141.69c.14-.14.35-.34.61-.59l.06-.06c.13-.12.28-.26.45-.42,5.95-5.53,30.78-26.36,66.56-26.36,33.54,0,48.55,15.81,48.55,31.49,0,8.85-3.53,37.73-48.93,37.73-18.23,0-37-7.65-51.49-21-5.51-5.07-10.1-10.66-13.66-16.53-.28-.45-.55-.91-.8-1.36-.23-.4-.46-.8-.68-1.2-.03-.05-.06-.11-.09-.17-.25-.46-.49-.92-.73-1.38l.15-.15Z"/>
      <g>
        <path class="cls-2" d="M178.79,150.92c-3.22-5.07-5.75-10.35-7.52-15.73"/>
        <path class="cls-2" d="M177,129.95c1.5,5.59,3.93,11.13,7.21,16.44"/>
      </g>
      <g>
        <path class="cls-2" d="M144.76,168.76c-.74.74-1.46,1.47-2.17,2.18l-1.05,1.05c-.4.4-.78.79-1.17,1.17-.13.14-.26.27-.4.4l-3.83,3.88c-.3.31-.67.71-1.1,1.18-1.07,1.18-2.52,2.86-4.2,5"/>
        <path class="cls-2" d="M150.73,172.68c-3.33,3.34-6.42,6.45-9.04,9.09-.61.62-2.26,2.34-4.47,5.05"/>
      </g>
      <polygon class="cls-2" points="143.21 182.34 141.84 181.62 147.03 176.4 148.34 177.15 143.21 182.34"/>
      <polygon class="cls-2" points="182.92 140.64 181.75 141.65 178.74 134.93 179.91 133.98 182.92 140.64"/>
      <polygon class="cls-2" points="176.19 147.03 175.07 148.15 172.13 141.59 173.29 140.48 176.19 147.03"/>
      <polygon class="cls-2" points="134.84 178.75 133.48 178.02 138.67 172.8 139.98 173.55 134.84 178.75"/>
    </g>
  </g>
</svg>