<?xml version="1.0" encoding="UTF-8"?>
<svg xmlns="http://www.w3.org/2000/svg" xmlns:xlink="http://www.w3.org/1999/xlink" viewBox="0 0 252 360">
  <defs>
    <style>
      .cls-1, .cls-2, .cls-3 {
        fill: none;
      }

      .cls-4 {
        fill: #f9b3b8;
      }

      .cls-2 {
        stroke-width: 2px;
      }

      .cls-2, .cls-3 {
        stroke: #392c24;
        stroke-miterlimit: 10;
      }

      .cls-5 {
        fill: #392c24;
      }

      .cls-6 {
        clip-path: url(#clippath);
      }
    </style>
    <clipPath id="clippath">
      <path class="cls-1" d="M140.62,82.82c0,8.08-6.55,14.62-14.62,14.62-6.15,0-11.41-3.79-13.57-9.16-.26-.65.86-1.82.69-2.51-.14-.58-1.58-.66-1.65-1.26-.06-.56-.1-1.12-.1-1.69,0-1.86.35-3.64.98-5.27.36-.92.8-1.8,1.33-2.62,2.6-4.05,7.14-6.73,12.31-6.73,5.43,0,10.17,2.96,12.69,7.36,1.23,2.14,1.93,4.62,1.93,7.27Z"/>
    </clipPath>
  </defs>
  <g id="Layer_4" data-name="Layer 4">
    <path class="cls-4" d="M38.74,59.65c-.83,1.22-1.64,2.41-2.44,3.54-9.88,14.01-20.58,14.92-36.3,15.03v281.78h252V78.21c-15.75-.09-26.58-1.26-36.3-15.03h0c-.94-1.34-1.92-2.79-2.92-4.26l-.08-.11c-8.65-12.79-20.46-30.27-37.92-19.92-10.43,6.17-6.8,17.86-4.41,25.6.57,1.82,1.2,3.86,1.56,5.56.45,2.12.4,4.2-.14,6.35l-.15.61-.56-.28c-1.55-.79-2.88-1.76-3.94-2.87-1.25-1.73-.06-3.71.99-5.44.51-.75.78-1.92.33-2.75-.3-.57-.87-.88-1.6-.88-.64,0-1.12.28-1.55.53-.4.22-.6.32-.79.36-1.33.2-3.42-.58-4.08-1.84-.2-.43-.17-.78-.15-1.19.04-.57.08-1.2-.45-1.93l-.1-.12c-.52-.47-1.17-.66-1.86-.52-2.48.5-4.88,5.13-6.9,9.6l-.21.46c-.88,1.91-2.52,2.3-4.27,2.72-.41.1-.83.2-1.21.31-.34.09-.68.17-1.01.25l-.5.12c-1.11.25-2.36.54-3.42.93-.39.11-.69.24-.97.42l-.41.26c.06.09.11.19.16.28l.08.15c.05.09.1.18.15.28l.05.1v.62h-.82s-.14-.27-.14-.27c-.07-.14-.13-.26-.2-.37-.46-.8-.99-1.54-1.59-2.23l.75-.66s0,0,0,0c.02.02.04.04.06.07-.01-.02-.03-.03-.04-.05-.22-.26-.44-.5-.68-.73-2.87-2.9-6.69-4.5-10.76-4.5s-7.55,1.46-10.37,4.1c-.42.4-.85.85-1.27,1.35-.02.03-.04.05-.06.08.02-.03.05-.06.07-.08l.77.64c-.37.45-.72.92-1.02,1.4l-.26.41-.85-.52c.04-.08.09-.15.14-.22l.04-.07-.16.24-.42-.28c-.25-.16-.53-.29-.81-.37-1.18-.44-2.38-.71-3.54-.98l-.38-.09c-.39-.09-.77-.17-1.12-.27-.43-.12-.84-.22-1.25-.32-1.74-.41-3.39-.8-4.27-2.71l-.18-.4c-1.89-4.23-4.38-9.14-6.91-9.67-.69-.15-1.35.05-1.91.56l-.09.11c-.5.7-.46,1.33-.42,1.89.04.46.06.79-.11,1.14-.67,1.3-2.75,2.1-4.02,1.91-.28-.06-.54-.2-.82-.35-.49-.28-.98-.55-1.58-.56-.77,0-1.32.29-1.63.87-.45.83-.2,2,.29,2.71,1.08,1.77,2.29,3.76,1.08,5.44-1.12,1.17-2.45,2.13-4,2.92l-.56.29-.15-.61c-.54-2.17-.59-4.24-.14-6.35.33-1.55.88-3.34,1.46-5.22l.1-.33c2.4-7.73,6.04-19.42-4.4-25.6-17.44-10.33-29.27,7.14-37.91,19.89l-.58.86ZM140.29,79.36s12.75.65,12.85,1.46c.08.81-.4.66-1.09,1.07-2.32,1.42-6.6,1.84-8.27,2.12-.15.03-2.66.42-3.27.65l-2.11,2.5s2.11-2.5,2.11-4.95c0-1.84-1.72-2.27-1.74-2.33l-.59-1.95,2.11,1.43ZM136.91,93.4c.09-.1.19-.2.24-.25.17-.17.3-.32.43-.48l.61-.78c.07-.09.14-.21.22-.32l.15-.21c.16-.24.33-.52.47-.76.14-.23.27-.45.41-.72v-.09l.42-.44.31.14c1.61.72,3.97.49,5.7.32l.45-.04c.33-.03.64-.06.91-.06.56-.02,1.13-.06,1.72-.1l.63-.04c2.7-.2,5.5-.41,7.96.47.28.1.55.25.82.46.4.3.79.63,1.16,1l.46.44-.54.34c-4.37,2.76-9.44,4.3-14.06,4.3-.34,0-.67,0-1-.02-1.88-.09-4.73-.53-7.57-2.12l-.58-.33.69-.69ZM134.9,93.87l.21-.16c.13-.1.25-.21.38-.33l.7.71c-.16.16-.32.31-.49.43l-.79.58v-1.24ZM112.64,75.84c.05-.1.11-.21.17-.31l.06-.12.88.48c-.07.12-.13.26-.2.39l-.14.28h-1.12l.35-.72ZM99.53,80.35c1.43-.51,3.01-.65,5.51-.65,1.81,0,3.95.35,5.22.09l1.92-.86-.58.49s-.49,4-.47,4.28c.3.34,1.57,1.57,1.02,1.12-1.2-.97-3.79-.56-3.93-.59-.28-.05-6.19-.99-8.78-2.58-.68-.41-.24.14-.16-.67.09-.82-.52-.38.24-.64ZM92.49,91.5c.38-.38.78-.73,1.19-1.03.26-.2.54-.36.83-.45,2.44-.88,5.23-.67,7.93-.46l.62.04c.58.04,1.16.08,1.72.1.26,0,.56.03.9.06l.44.04c1.74.17,4.1.4,5.72-.32l.44-.19.21.43c.12.25.26.49.39.72.65,1.14,1.47,2.21,2.44,3.18l.46.46-.57.32c-2.25,1.27-4.8,1.99-7.58,2.13-.36.02-.72.03-1.09.03-4.66,0-9.58-1.5-13.98-4.28l-.53-.33.44-.44Z"/>
  </g>
  <g id="Layer_2" data-name="Layer 2">
    <g>
      <g>
        <path class="cls-2" d="M72.31,79.59c-10.53,1.25-10.59-9.28-5.75-16.51.86-1.28,1.49-3.42,0-4.52-2.79-1.4-4.87,2.02-6.08,4.31-4.69,8.87-5.15,20.57,5.76,23.07,5.99.5,5.55,3.4,3.25,7.91-.96,2.62-3.65,5.38-2.41,8.29.82,1.54,2.9,1.11,3.91.1,2.67-1.89,6.65-10.29,8.83-10.14,3.72,1.3-4.22,14.33.81,13.89.69-.06,1.34-.39,1.82-.88,4.31-4.38,5.88-11.38,10.91-15.15.29-.22.61-.39.95-.52,3.27-1.18,7.08-.5,10.49-.37,2.46.09,8.43,1.44,8.4-2.73-.34-1.94-3.43-2.07-4.98-2.33-1.65-.28-7.09-1.31-9.12-2.55-.41-.25-.33-.87.12-1.03,2.57-.91,10.24.13,12.48-1.08,2.37-.75,2.24-3.89-.14-4.51-1.58-.59-3.34-.89-4.98-1.31-2.28-.66-4.64-.73-5.82-3.31-1.01-2.2-5.21-12.09-8.21-9.34-.78,1.09,0,1.86-.52,3.02-.77,1.48-3.06,2.38-4.59,2.15-.8-.17-1.44-.88-2.27-.89-1.63-.02-1.61,1.78-.9,2.82,1.09,1.8,2.48,4.08,1,6.05-3.21,3.38-8.35,5-12.96,5.55Z"/>
        <path class="cls-5" d="M95.14,66.82c-.54,0-1.06.48-1.04,1.04.03.56.46,1.04,1.04,1.04.54,0,1.06-.48,1.04-1.04-.03-.56-.46-1.04-1.04-1.04Z"/>
        <path class="cls-5" d="M90.03,69.04c-.54,0-1.06.48-1.04,1.04.03.56.46,1.04,1.04,1.04.54,0,1.06-.48,1.04-1.04-.03-.56-.46-1.04-1.04-1.04Z"/>
        <path class="cls-5" d="M93.51,69.12c-.54,0-1.06.48-1.04,1.04.03.56.46,1.04,1.04,1.04.54,0,1.06-.48,1.04-1.04-.03-.56-.46-1.04-1.04-1.04Z"/>
      </g>
      <g>
        <path class="cls-2" d="M179.69,79.59c10.53,1.25,10.59-9.28,5.75-16.51-.86-1.28-1.49-3.42,0-4.52,2.79-1.4,4.87,2.02,6.08,4.31,4.69,8.87,5.15,20.57-5.76,23.07-5.99.5-5.55,3.4-3.25,7.91.96,2.62,3.65,5.38,2.41,8.29-.82,1.54-2.9,1.11-3.91.1-2.67-1.89-6.65-10.29-8.83-10.14-3.72,1.3,4.22,14.33-.81,13.89-.69-.06-1.34-.39-1.82-.88-4.31-4.38-5.88-11.38-10.91-15.15-.29-.22-.61-.39-.95-.52-3.27-1.18-7.08-.5-10.49-.37-2.46.09-8.43,1.44-8.4-2.73.34-1.94,3.43-2.07,4.98-2.33,1.65-.28,7.09-1.31,9.12-2.55.41-.25.33-.87-.12-1.03-2.57-.91-10.24.13-12.48-1.08-.89-.28-1.43-.9-1.62-1.6-.33-1.16.28-2.53,1.77-2.92,1.58-.59,3.34-.89,4.98-1.31,2.28-.66,4.64-.73,5.82-3.31,1.01-2.2,5.21-12.09,8.21-9.34.78,1.09,0,1.86.52,3.02.77,1.48,3.06,2.38,4.59,2.15.8-.17,1.44-.88,2.27-.89,1.63-.02,1.61,1.78.9,2.82-1.09,1.8-2.48,4.08-1,6.05,3.21,3.38,8.35,5,12.96,5.55Z"/>
        <path class="cls-5" d="M156.86,66.82c.54,0,1.06.48,1.04,1.04-.03.56-.46,1.04-1.04,1.04-.54,0-1.06-.48-1.04-1.04.03-.56.46-1.04,1.04-1.04Z"/>
        <path class="cls-5" d="M161.97,69.04c.54,0,1.06.48,1.04,1.04-.03.56-.46,1.04-1.04,1.04-.54,0-1.06-.48-1.04-1.04.03-.56.46-1.04,1.04-1.04Z"/>
        <path class="cls-5" d="M158.49,69.12c.54,0,1.06.48,1.04,1.04-.03.56-.46,1.04-1.04,1.04-.54,0-1.06-.48-1.04-1.04.03-.56.46-1.04,1.04-1.04Z"/>
      </g>
      <g class="cls-6">
        <path class="cls-3" d="M139.57,101.46h-5.11c-5.11-12.85-15.68-22.92-28.85-27.34v-3.93c16.03,3.8,28.9,15.77,33.96,31.26Z"/>
        <path class="cls-3" d="M139.57,101.46h-5.11c-5.11-12.85-15.68-22.92-28.85-27.34v-3.93c16.03,3.8,28.9,15.77,33.96,31.26Z"/>
        <path class="cls-3" d="M144.49,101.46h-10.03c-5.11-12.85-15.68-22.92-28.85-27.34v-7.45c18.89,2.72,34.15,16.62,38.89,34.78Z"/>
        <path class="cls-3" d="M144.49,101.46h-10.03c-5.11-12.85-15.68-22.92-28.85-27.34v-7.45c18.89,2.72,34.15,16.62,38.89,34.78Z"/>
        <path class="cls-3" d="M149.24,101.46h-14.78c-5.11-12.85-15.68-22.92-28.85-27.34v-10.61c21.72,1.22,39.52,17.12,43.63,37.95Z"/>
        <path class="cls-3" d="M118.34,80.7c1.27.93,2.5,1.91,3.67,2.96-6.61,7.03-15.31,11.98-24.97,13.95l.58-5.07c7.86-2.12,14.98-6.23,20.72-11.83Z"/>
        <path class="cls-3" d="M118.34,80.7c1.27.93,2.5,1.91,3.67,2.96-6.61,7.03-15.31,11.98-24.97,13.95l.58-5.07c7.86-2.12,14.98-6.23,20.72-11.83Z"/>
        <path class="cls-3" d="M125.31,86.92c-7.34,8.33-17.53,13.99-28.84,15.58l.56-4.89.58-5.07c7.86-2.12,14.98-6.23,20.72-11.83,1.27.93,2.5,1.91,3.67,2.96,1.15,1.03,2.26,2.12,3.31,3.26Z"/>
        <path class="cls-3" d="M125.31,86.92c-7.34,8.33-17.53,13.99-28.84,15.58l.56-4.89.58-5.07c7.86-2.12,14.98-6.23,20.72-11.83,1.27.93,2.5,1.91,3.67,2.96,1.15,1.03,2.26,2.12,3.31,3.26Z"/>
        <path class="cls-3" d="M125.31,86.92c1.05,1.13,2.05,2.33,2.97,3.57-7.98,9.49-19.56,15.7-32.36,16.72l.54-4.71.56-4.89.58-5.07c7.86-2.12,14.98-6.23,20.72-11.83,1.27.93,2.5,1.91,3.67,2.96,1.15,1.03,2.26,2.12,3.31,3.26Z"/>
        <path class="cls-3" d="M125.31,86.92c1.05,1.13,2.05,2.33,2.97,3.57-7.98,9.49-19.56,15.7-32.36,16.72l.54-4.71.56-4.89.58-5.07c7.86-2.12,14.98-6.23,20.72-11.83,1.27.93,2.5,1.91,3.67,2.96,1.15,1.03,2.26,2.12,3.31,3.26Z"/>
      </g>
      <g>
        <g>
          <path class="cls-2" d="M90.68,91.5c5,3.65,11.22,5.73,16.98,5.43,2.54-.13,5.7-.78,8.66-2.72"/>
          <path class="cls-2" d="M0,78.62c16.85-.09,26.85-1.27,36.71-15.25.98-1.39,1.99-2.87,3.02-4.4,8.53-12.6,20.2-29.84,37.24-19.75,10.09,5.99,6.67,16.99,4.18,25.03-.63,2.02-1.22,3.93-1.58,5.6-.52,2.48-.38,4.98.43,7.55"/>
          <path class="cls-2" d="M0,85.62c18.06-.09,30.59-1.43,42.43-18.21,1.01-1.43,2.04-2.95,3.1-4.52,9.66-14.27,17.32-23.9,27.87-17.65,4.98,2.96,3.72,8.37,1.06,16.93-.68,2.18-1.32,4.25-1.74,6.23-.74,3.55-.58,7.13.49,10.71"/>
          <path class="cls-2" d="M123.59,97.29c-4.11,4-9.48,6.31-15.57,6.63-.47.02-.95.04-1.42.04-6.62,0-13.59-2.35-19.36-6.34"/>
        </g>
        <g>
          <path class="cls-2" d="M164.58,97.74c-5.73,3.91-12.63,6.22-19.18,6.22-.48,0-.95-.01-1.42-.04-6.09-.32-11.46-2.63-15.57-6.63"/>
          <path class="cls-2" d="M178.73,79.31c1.13-3.65,1.31-7.29.55-10.91-.42-1.98-1.06-4.05-1.74-6.23-2.66-8.56-3.91-13.97,1.07-16.93,10.55-6.25,18.21,3.38,27.87,17.65,1.06,1.57,2.09,3.09,3.1,4.52,11.83,16.78,24.37,18.11,42.42,18.21"/>
          <path class="cls-2" d="M252,78.62c-16.82-.08-26.84-1.26-36.7-15.25-.98-1.39-1.99-2.87-3.02-4.4-8.53-12.6-20.2-29.84-37.24-19.75-10.1,5.99-6.68,16.99-4.18,25.03.63,2.02,1.22,3.93,1.57,5.6.44,2.1.41,4.22-.1,6.38-.01.07-.03.14-.05.21-.09.36-.19.72-.31,1.09"/>
          <path class="cls-2" d="M135.06,93.78c3.14,2.28,6.56,3.01,9.28,3.15,5.48.28,11.39-1.58,16.26-4.92"/>
        </g>
      </g>
      <path class="cls-2" d="M122.47,97.88l-1.19.89s-.96-.43-3.33-1.66c-1.95-1.02-3.08-1.96-3.08-1.96l1.24-.84,6.37,3.57Z"/>
      <path class="cls-2" d="M129.44,97.88l1.19.89s.96-.43,3.33-1.66c1.95-1.02,3.08-1.96,3.08-1.96l-1.24-.84-6.37,3.57Z"/>
      <polygon class="cls-2" points="88.82 98.36 87.7 97.69 91.37 92.3 92.32 92.91 88.82 98.36"/>
      <polygon class="cls-2" points="73.24 79.18 73.02 78.05 79.61 76.23 79.81 77.34 73.24 79.18"/>
      <polygon class="cls-2" points="163.11 98.36 164.22 97.69 160.56 92.3 159.6 92.91 163.11 98.36"/>
      <polygon class="cls-2" points="178.68 79.18 178.9 78.05 172.32 76.23 172.11 77.34 178.68 79.18"/>
      <path class="cls-2" d="M138.79,86.35c-.01.91.27,1.56.74,2.01-2.18,5.33-7.42,9.08-13.53,9.08s-11.36-3.75-13.54-9.08c.47-.45.75-1.1.74-2.01-.15-.86-.85-1.37-1.71-1.68-.08-.61-.12-1.22-.12-1.85,0-1.2.15-2.37.42-3.49,1.59-.55,2-2.21,1.3-3.37.18-.36.38-.7.6-1.04,2.6-4.04,7.14-6.72,12.31-6.72,5.43,0,10.16,2.96,12.69,7.35.07.13.15.26.22.4-.34.55-.42,1.21-.25,1.82.19.67.71,1.27,1.54,1.56.28,1.12.42,2.29.42,3.49,0,.63-.04,1.24-.12,1.85-.86.31-1.56.82-1.71,1.68Z"/>
    </g>
  </g>
</svg>