<?xml version="1.0" encoding="UTF-8"?>
<svg xmlns="http://www.w3.org/2000/svg" viewBox="0 0 360 360">
  <defs>
    <style>
      .cls-1 {
        fill: #f9b3b8;
      }

      .cls-2 {
        fill: none;
        stroke: #392c24;
        stroke-miterlimit: 10;
        stroke-width: 2px;
      }
    </style>
  </defs>
  <g id="Layer_4" data-name="Layer 4">
    <path class="cls-1" d="M0,78.63v281.37s281.37,0,281.37,0v-6.64c0-33.33,7.59-48.08,14.92-62.35,6.74-13.13,13.71-26.7,13.71-53.48,0-26.79-18.19-69.29-67.02-69.29-7.98,0-15.86,1.76-23.35,4.92-.39-.38-.77-.77-1.17-1.17l-1.05-1.05c-.71-.71-1.43-1.44-2.17-2.18-8.98-9.02-20.09-20.12-28.41-28.38,3.17-7.48,4.92-15.38,4.92-23.36,0-26.58-12.84-42.45-23.62-51.09-12.46-9.97-29.53-15.93-45.66-15.93-26.78,0-40.35,6.97-53.48,13.71-14.27,7.34-29.03,14.92-62.35,14.92H0Z"/>
  </g>
  <g id="Layer_2" data-name="Layer 2">
    <g>
      <path class="cls-2" d="M281.37,360v-6.64c0-33.32,7.58-48.08,14.92-62.35,6.74-13.13,13.71-26.7,13.71-53.48,0-16.13-5.96-33.2-15.93-45.66-8.64-10.78-24.51-23.62-51.09-23.62-7.98,0-15.88,1.75-23.36,4.92-8.26-8.32-19.36-19.43-28.38-28.41-.74-.74-1.47-1.46-2.18-2.17l-1.05-1.05c-.4-.4-.79-.78-1.17-1.17,3.16-7.49,4.92-15.37,4.92-23.35,0-48.83-42.5-67.02-69.29-67.02-26.78,0-40.35,6.97-53.48,13.71-14.27,7.33-29.02,14.92-62.35,14.92H0M0,85.63h6.64c35.02,0,50.54-7.98,65.55-15.69,12.96-6.66,25.19-12.94,50.28-12.94,24.08,0,62.29,16.29,62.29,60.02,0,5.53-1,11.13-2.9,16.66h0c-.15.44-.3.88-.46,1.31-.01.02-.01.03-.02.05-1.18-1.07-2.86-2.52-5-4.2-11.08-8.71-34.57-23.58-65.83-23.58-38.38,0-55.56,19.33-55.56,38.49,0,11.52,4.28,22.15,12.04,29.9,9.85,9.84,24.61,14.83,43.89,14.83,29.57,0,58.01-18.1,71.93-42.14l.75-1.31c1.2,1.18,2.44,2.42,3.71,3.69,8.21,8.18,17.95,17.92,25.66,25.68-24.7,13.64-43.45,42.57-43.45,72.68,0,19.28,4.99,34.05,14.82,43.89,7.76,7.76,18.38,12.04,29.91,12.04,19.16,0,38.49-17.18,38.49-55.55s-20.87-63.17-27.64-70.68l-.04-.04s-.07-.08-.1-.11h-.01c.3-.12.61-.23.91-.33,1.39-.49,2.78-.92,4.18-1.3,4.32-1.15,8.65-1.75,12.94-1.75,43.73,0,60.02,38.2,60.02,62.28,0,25.09-6.28,37.32-12.94,50.28-7.71,15.01-15.69,30.53-15.69,65.55v6.64M162.41,162.48c-14.49,13.34-33.26,21-51.49,21-45.4,0-48.93-28.88-48.93-37.73,0-15.68,15.02-31.49,48.56-31.49,30.4,0,52.9,15.05,62.62,22.95,2.71,2.21,4.43,3.86,5.05,4.48.05.05.1.1.16.15h0c-.24.46-.48.92-.72,1.37-3.75,6.87-8.89,13.42-15.25,19.27ZM218.31,181.78c.14.14.34.35.59.61l.06.06c.12.13.26.28.42.45,5.53,5.95,26.36,30.78,26.36,66.56,0,33.54-15.81,48.55-31.49,48.55-8.85,0-37.73-3.53-37.73-48.93,0-18.23,7.65-37,21-51.49,5.07-5.51,10.66-10.1,16.53-13.66.45-.28.91-.55,1.36-.8.4-.23.8-.46,1.2-.68.05-.03.11-.06.17-.09.46-.25.92-.49,1.38-.73l.15.15Z"/>
      <g>
        <path class="cls-2" d="M209.08,178.78c5.07-3.22,10.35-5.75,15.73-7.52"/>
        <path class="cls-2" d="M230.04,176.99c-5.59,1.5-11.13,3.93-16.44,7.21"/>
      </g>
      <g>
        <path class="cls-2" d="M191.24,144.76c-.74-.74-1.47-1.46-2.18-2.17l-1.05-1.05c-.4-.4-.79-.78-1.17-1.17-.14-.13-.27-.26-.4-.4l-3.88-3.83c-.31-.3-.71-.67-1.18-1.1-1.18-1.07-2.86-2.52-5-4.2"/>
        <path class="cls-2" d="M187.31,150.72c-3.34-3.33-6.45-6.42-9.09-9.04-.62-.61-2.34-2.26-5.05-4.47"/>
      </g>
      <polygon class="cls-2" points="177.65 143.2 178.38 141.83 183.6 147.02 182.85 148.33 177.65 143.2"/>
      <polygon class="cls-2" points="219.36 182.91 218.34 181.75 225.06 178.73 226.01 179.9 219.36 182.91"/>
      <polygon class="cls-2" points="212.96 176.18 211.85 175.06 218.4 172.12 219.52 173.28 212.96 176.18"/>
      <polygon class="cls-2" points="181.25 134.84 181.97 133.47 187.2 138.66 186.44 139.97 181.25 134.84"/>
    </g>
  </g>
</svg>